<svg xmlns="http://www.w3.org/2000/svg" width="30" height="30" viewBox="0 0 30 30" fill="none">
  <path d="M4.137 25.5C3.55821 25.5 3.05734 25.2886 2.63441 24.8656C2.21147 24.4427 2 23.9418 2 23.3631V9.23561C2 8.64474 2.21146 8.14085 2.63438 7.72396C3.05733 7.30706 3.55821 7.09861 4.137 7.09861H8.06731L10.4976 4.50005H17.7236V5.86783H11.0649L8.66587 8.46639H4.137C3.91265 8.46639 3.72835 8.54252 3.58412 8.69477C3.4399 8.847 3.36778 9.02728 3.36778 9.23561V23.3631C3.36778 23.5874 3.4399 23.7717 3.58412 23.9159C3.72835 24.0602 3.91265 24.1323 4.137 24.1323H23.363C23.5874 24.1323 23.7716 24.0602 23.9159 23.9159C24.0601 23.7717 24.1322 23.5874 24.1322 23.3631V12.2765H25.5V23.3631C25.5 23.9418 25.2916 24.4427 24.8747 24.8656C24.4578 25.2886 23.9539 25.5 23.363 25.5H4.137ZM24.3666 8.33418V5.61783H21.6659V4.48443H24.3822V1.77649H25.5156V4.50005H28.2236V5.63346H25.5V8.33418H24.3666ZM13.7519 20.9087C15.0575 20.9087 16.1524 20.4653 17.0367 19.5785C17.9209 18.6917 18.363 17.5962 18.363 16.2921C18.363 15.0037 17.9191 13.9133 17.0312 13.0211C16.1433 12.1289 15.0465 11.6827 13.7409 11.6827C12.4352 11.6827 11.3415 12.1289 10.4597 13.0211C9.57791 13.9133 9.137 15.0089 9.137 16.3077C9.137 17.6066 9.57975 18.6982 10.4652 19.5824C11.3507 20.4666 12.4463 20.9087 13.7519 20.9087ZM13.7376 19.5409C12.834 19.5409 12.0693 19.2327 11.4435 18.6162C10.8177 17.9997 10.5048 17.2309 10.5048 16.3097C10.5048 15.3885 10.8185 14.615 11.4459 13.9892C12.0734 13.3634 12.841 13.0505 13.7488 13.0505C14.6566 13.0505 15.4247 13.3597 16.0529 13.978C16.6811 14.5963 16.9952 15.3692 16.9952 16.2965C16.9952 17.2239 16.6844 17.9964 16.0628 18.6142C15.4413 19.232 14.6662 19.5409 13.7376 19.5409Z" fill="#909090"/>
</svg>