<svg xmlns="http://www.w3.org/2000/svg" width="31" height="30" viewBox="0 0 31 30" fill="none">
  <path d="M4.9624 25.1923V8.94232H9.9624V3.94232H21.2124V13.9423H26.2124V25.1923H17.4624V20.1923H13.7124V25.1923H4.9624ZM6.2124 23.9423H9.9624V20.1923H6.2124V23.9423ZM6.2124 18.9423H9.9624V15.1923H6.2124V18.9423ZM6.2124 13.9423H9.9624V10.1923H6.2124V13.9423ZM11.2124 18.9423H14.9624V15.1923H11.2124V18.9423ZM11.2124 13.9423H14.9624V10.1923H11.2124V13.9423ZM11.2124 8.94232H14.9624V5.19232H11.2124V8.94232ZM16.2124 18.9423H19.9624V15.1923H16.2124V18.9423ZM16.2124 13.9423H19.9624V10.1923H16.2124V13.9423ZM16.2124 8.94232H19.9624V5.19232H16.2124V8.94232ZM21.2124 23.9423H24.9624V20.1923H21.2124V23.9423ZM21.2124 18.9423H24.9624V15.1923H21.2124V18.9423Z" fill="#404040"/>
</svg>