<svg xmlns="http://www.w3.org/2000/svg" width="20" height="21" viewBox="0 0 20 21" fill="none">
  <path d="M2.9165 17.704V6.87069H6.24984V3.53735H13.7498V10.204H17.0832V17.704H11.2498V14.3707H8.74984V17.704H2.9165ZM3.74984 16.8707H6.24984V14.3707H3.74984V16.8707ZM3.74984 13.5374H6.24984V11.0374H3.74984V13.5374ZM3.74984 10.204H6.24984V7.70402H3.74984V10.204ZM7.08317 13.5374H9.58317V11.0374H7.08317V13.5374ZM7.08317 10.204H9.58317V7.70402H7.08317V10.204ZM7.08317 6.87069H9.58317V4.37069H7.08317V6.87069ZM10.4165 13.5374H12.9165V11.0374H10.4165V13.5374ZM10.4165 10.204H12.9165V7.70402H10.4165V10.204ZM10.4165 6.87069H12.9165V4.37069H10.4165V6.87069ZM13.7498 16.8707H16.2498V14.3707H13.7498V16.8707ZM13.7498 13.5374H16.2498V11.0374H13.7498V13.5374Z" fill="white"/>
</svg>