<svg xmlns="http://www.w3.org/2000/svg" width="250" height="251" viewBox="0 0 250 251" fill="none">
  <path d="M227.062 125.804C227.062 140.737 223.795 155.488 217.489 169.02C211.184 182.553 201.994 194.537 190.566 204.13C179.139 213.723 165.751 220.692 151.344 224.546C136.938 228.401 121.863 229.047 107.18 226.44C92.4971 223.833 78.5632 218.035 66.3586 209.455C54.1539 200.875 43.9749 189.721 36.5377 176.778C29.1006 163.835 24.5859 149.417 23.3114 134.539C22.037 119.661 24.0336 104.684 29.1608 90.6617L75.1759 107.534C72.5104 114.824 71.4724 122.61 72.135 130.345C72.7976 138.08 75.1446 145.575 79.011 152.304C82.8773 159.033 88.1691 164.831 94.514 169.292C100.859 173.752 108.103 176.766 115.736 178.122C123.369 179.477 131.206 179.141 138.696 177.137C146.185 175.134 153.145 171.511 159.086 166.523C165.027 161.536 169.805 155.306 173.083 148.271C176.361 141.236 178.059 133.567 178.059 125.804H227.062Z" fill="#FDD037"/>
  <mask id="path-2-outside-1_35_2638" maskUnits="userSpaceOnUse" x="18.938" y="19.5981" width="147" height="213" fill="black">
    <rect fill="white" x="18.938" y="19.5981" width="147" height="213"/>
    <path d="M125 228.01C110.088 228.01 95.3575 224.738 81.8444 218.423C68.3312 212.109 56.3638 202.907 46.7842 191.463C37.2046 180.019 30.2455 166.612 26.3965 152.185C22.5475 137.758 21.9021 122.662 24.5057 107.959C27.1094 93.2552 32.8988 79.3017 41.4666 67.0799C50.0344 54.858 61.1726 44.6646 74.0974 37.217C87.0222 29.7694 101.42 25.2484 116.277 23.9721C131.134 22.6958 146.09 24.6953 160.093 29.8298L143.244 75.9097C135.964 73.2404 128.189 72.2009 120.465 72.8644C112.741 73.5279 105.256 75.8783 98.5372 79.7501C91.8179 83.6219 86.0275 88.9211 81.5733 95.2749C77.1192 101.629 74.1094 108.883 72.7559 116.527C71.4023 124.171 71.7378 132.019 73.7388 139.519C75.7398 147.019 79.3577 153.989 84.3378 159.938C89.318 165.887 95.5395 170.672 102.565 173.954C109.59 177.237 117.248 178.938 125 178.938L125 228.01Z"/>
  </mask>
  <path d="M125 228.01C110.088 228.01 95.3575 224.738 81.8444 218.423C68.3312 212.109 56.3638 202.907 46.7842 191.463C37.2046 180.019 30.2455 166.612 26.3965 152.185C22.5475 137.758 21.9021 122.662 24.5057 107.959C27.1094 93.2552 32.8988 79.3017 41.4666 67.0799C50.0344 54.858 61.1726 44.6646 74.0974 37.217C87.0222 29.7694 101.42 25.2484 116.277 23.9721C131.134 22.6958 146.09 24.6953 160.093 29.8298L143.244 75.9097C135.964 73.2404 128.189 72.2009 120.465 72.8644C112.741 73.5279 105.256 75.8783 98.5372 79.7501C91.8179 83.6219 86.0275 88.9211 81.5733 95.2749C77.1192 101.629 74.1094 108.883 72.7559 116.527C71.4023 124.171 71.7378 132.019 73.7388 139.519C75.7398 147.019 79.3577 153.989 84.3378 159.938C89.318 165.887 95.5395 170.672 102.565 173.954C109.59 177.237 117.248 178.938 125 178.938L125 228.01Z" fill="#FAA630"/>
  <path d="M125 228.01C110.088 228.01 95.3575 224.738 81.8444 218.423C68.3312 212.109 56.3638 202.907 46.7842 191.463C37.2046 180.019 30.2455 166.612 26.3965 152.185C22.5475 137.758 21.9021 122.662 24.5057 107.959C27.1094 93.2552 32.8988 79.3017 41.4666 67.0799C50.0344 54.858 61.1726 44.6646 74.0974 37.217C87.0222 29.7694 101.42 25.2484 116.277 23.9721C131.134 22.6958 146.09 24.6953 160.093 29.8298L143.244 75.9097C135.964 73.2404 128.189 72.2009 120.465 72.8644C112.741 73.5279 105.256 75.8783 98.5372 79.7501C91.8179 83.6219 86.0275 88.9211 81.5733 95.2749C77.1192 101.629 74.1094 108.883 72.7559 116.527C71.4023 124.171 71.7378 132.019 73.7388 139.519C75.7398 147.019 79.3577 153.989 84.3378 159.938C89.318 165.887 95.5395 170.672 102.565 173.954C109.59 177.237 117.248 178.938 125 178.938L125 228.01Z" stroke="white" stroke-width="8" mask="url(#path-2-outside-1_35_2638)"/>
  <mask id="path-3-outside-2_35_2638" maskUnits="userSpaceOnUse" x="20.6405" y="-5.08154" width="232.482" height="161.91" fill="black">
    <rect fill="white" x="20.6405" y="-5.08154" width="232.482" height="161.91"/>
    <path d="M26.4158 99.3514C32.8698 75.2306 47.9189 54.3105 68.7218 40.5408C89.5247 26.7711 114.642 21.1045 139.331 24.611C164.021 28.1174 186.574 40.5542 202.733 59.5733C218.893 78.5925 227.54 102.878 227.042 127.845L178.049 126.865C178.308 113.885 173.812 101.26 165.412 91.3726C157.011 81.4851 145.286 75.0196 132.451 73.1967C119.615 71.3738 106.557 74.3196 95.7426 81.4781C84.9278 88.6366 77.1042 99.5124 73.7489 112.052L26.4158 99.3514Z"/>
  </mask>
  <path d="M26.4158 99.3514C32.8698 75.2306 47.9189 54.3105 68.7218 40.5408C89.5247 26.7711 114.642 21.1045 139.331 24.611C164.021 28.1174 186.574 40.5542 202.733 59.5733C218.893 78.5925 227.54 102.878 227.042 127.845L178.049 126.865C178.308 113.885 173.812 101.26 165.412 91.3726C157.011 81.4851 145.286 75.0196 132.451 73.1967C119.615 71.3738 106.557 74.3196 95.7426 81.4781C84.9278 88.6366 77.1042 99.5124 73.7489 112.052L26.4158 99.3514Z" fill="#1F5E4B"/>
  <path d="M26.4158 99.3514C32.8698 75.2306 47.9189 54.3105 68.7218 40.5408C89.5247 26.7711 114.642 21.1045 139.331 24.611C164.021 28.1174 186.574 40.5542 202.733 59.5733C218.893 78.5925 227.54 102.878 227.042 127.845L178.049 126.865C178.308 113.885 173.812 101.26 165.412 91.3726C157.011 81.4851 145.286 75.0196 132.451 73.1967C119.615 71.3738 106.557 74.3196 95.7426 81.4781C84.9278 88.6366 77.1042 99.5124 73.7489 112.052L26.4158 99.3514Z" stroke="white" stroke-width="8" mask="url(#path-3-outside-2_35_2638)"/>
</svg>