<svg xmlns="http://www.w3.org/2000/svg" width="20" height="21" viewBox="0 0 20 21" fill="none">
  <path fill-rule="evenodd" clip-rule="evenodd" d="M10.1423 4.66667H3.33333C2.8731 4.66667 2.5 5.03976 2.5 5.5C2.5 5.96024 2.8731 6.33333 3.33333 6.33333H10.1423C10.4855 7.30433 11.4115 8 12.5 8C13.5885 8 14.5145 7.30433 14.8577 6.33333H16.6667C17.1269 6.33333 17.5 5.96024 17.5 5.5C17.5 5.03976 17.1269 4.66667 16.6667 4.66667H14.8577C14.5145 3.69567 13.5885 3 12.5 3C11.4115 3 10.4855 3.69567 10.1423 4.66667ZM11.6667 5.5C11.6667 5.03976 12.0398 4.66667 12.5 4.66667C12.9602 4.66667 13.3333 5.03976 13.3333 5.5C13.3333 5.96024 12.9602 6.33333 12.5 6.33333C12.0398 6.33333 11.6667 5.96024 11.6667 5.5Z" fill="#404040"/>
  <path fill-rule="evenodd" clip-rule="evenodd" d="M6.66667 8C7.75518 8 8.68121 8.69567 9.02441 9.66667H16.6667C17.1269 9.66667 17.5 10.0398 17.5 10.5C17.5 10.9602 17.1269 11.3333 16.6667 11.3333H9.02441C8.68121 12.3043 7.75518 13 6.66667 13C5.57815 13 4.65212 12.3043 4.30892 11.3333H3.33333C2.8731 11.3333 2.5 10.9602 2.5 10.5C2.5 10.0398 2.8731 9.66667 3.33333 9.66667H4.30892C4.65212 8.69567 5.57815 8 6.66667 8ZM6.66667 9.66667C7.1269 9.66667 7.5 10.0398 7.5 10.5C7.5 10.9602 7.1269 11.3333 6.66667 11.3333C6.20643 11.3333 5.83333 10.9602 5.83333 10.5C5.83333 10.0398 6.20643 9.66667 6.66667 9.66667Z" fill="#404040"/>
  <path fill-rule="evenodd" clip-rule="evenodd" d="M3.33333 14.6667C2.8731 14.6667 2.5 15.0398 2.5 15.5C2.5 15.9602 2.8731 16.3333 3.33333 16.3333H11.8089C12.1521 17.3043 13.0782 18 14.1667 18C15.2552 18 16.1812 17.3043 16.5244 16.3333H16.6667C17.1269 16.3333 17.5 15.9602 17.5 15.5C17.5 15.0398 17.1269 14.6667 16.6667 14.6667H16.5244C16.1812 13.6957 15.2552 13 14.1667 13C13.0782 13 12.1521 13.6957 11.8089 14.6667H3.33333ZM15 15.5C15 15.0398 14.6269 14.6667 14.1667 14.6667C13.7064 14.6667 13.3333 15.0398 13.3333 15.5C13.3333 15.9602 13.7064 16.3333 14.1667 16.3333C14.6269 16.3333 15 15.9602 15 15.5Z" fill="#404040"/>
</svg>