<svg width="70" height="99" viewBox="0 0 70 99" fill="none" xmlns="http://www.w3.org/2000/svg">
<path d="M44.2142 85.4065C43.9015 85.7374 43.5875 86.0697 43.2744 86.4033C43.2744 86.4043 43.2733 86.4047 43.2729 86.4052C41.2291 88.5785 38.8838 91.107 36.9295 93.3682C36.4388 93.9333 35.7379 94.2516 35 94.2516C34.6299 94.2516 34.2689 94.1708 33.9394 94.0202C33.071 93.622 33.4678 93.5615 25.7854 85.4065C14.3549 86.7662 9.38818 90.1796 9.38818 91.6881C9.38818 93.7262 18.1018 98.5002 34.9996 98.5002C51.8974 98.5002 60.6116 93.7263 60.6116 91.6881C60.6118 90.1794 55.6449 86.7657 44.2142 85.4065Z" fill="#CCCCCC"/>
<path d="M35 87.823C48.6374 72.6389 70 53.9092 70 35.4381C70 16.1739 54.2991 0.5 35 0.5C15.7005 0.5 0 16.1739 0 35.4381C0 53.878 21.2687 72.5509 35 87.823ZM4.92017 35.4357C4.92017 18.8652 18.4141 5.38411 35.0006 5.38411C51.5851 5.38411 65.0783 18.8652 65.0783 35.4357C65.0783 52.0078 51.5851 65.4899 35.0006 65.4899C18.4141 65.4899 4.92017 52.008 4.92017 35.4357Z" fill="#CCCCCC"/>
<path d="M19.1519 54.2802H21.7222V30.6441C21.7222 30.4069 21.9141 30.2144 22.1505 30.2144C22.3869 30.2144 22.5788 30.4069 22.5788 30.6441V54.2801H25.1484V30.6441C25.1484 30.4069 25.3409 30.2144 25.5769 30.2144C25.8135 30.2144 26.005 30.4069 26.005 30.6441V54.2801H28.5748V27.6361H19.1519V54.2802Z" fill="#CCCCCC"/>
<path d="M47.4219 15.6028H32.8586V18.1816H47.4219V15.6028Z" fill="#CCCCCC"/>
<path d="M43.1395 46.545H37.1426V54.2805H43.1395V46.545Z" fill="#CCCCCC"/>
<path d="M47.85 19.041H32.4297H29.4316V27.2062V54.2802H36.2846V46.1152C36.2846 45.8781 36.4773 45.6855 36.7138 45.6855H43.567C43.8032 45.6855 43.9947 45.8781 43.9947 46.1152V54.2802H50.8482V19.041H47.85ZM34.1439 43.5366H32.4299V41.8174H34.1439V43.5366ZM34.1439 40.0991H32.4299V38.3799H34.1439V40.0991ZM34.1439 36.6605H32.4299V34.9419H34.1439V36.6605ZM34.1439 33.2229H32.4299V31.5042H34.1439V33.2229ZM34.1439 29.7845H32.4299V28.0664H34.1439V29.7845ZM34.1439 26.3468H32.4299V24.6282H34.1439V26.3468ZM34.1439 22.9084H32.4299V21.1899H34.1439V22.9084ZM37.5708 43.5366H35.8569V41.8174H37.5708V43.5366ZM37.5708 40.0991H35.8569V38.3799H37.5708V40.0991ZM37.5708 36.6605H35.8569V34.9419H37.5708V36.6605ZM37.5708 33.2229H35.8569V31.5042H37.5708V33.2229ZM37.5708 29.7845H35.8569V28.0664H37.5708V29.7845ZM37.5708 26.3468H35.8569V24.6282H37.5708V26.3468ZM37.5708 22.9084H35.8569V21.1899H37.5708V22.9084ZM40.9978 43.5366H39.2834V41.8174H40.9978V43.5366ZM40.9978 40.0991H39.2834V38.3799H40.9978V40.0991ZM40.9978 36.6605H39.2834V34.9419H40.9978V36.6605ZM40.9978 33.2229H39.2834V31.5042H40.9978V33.2229ZM40.9978 29.7845H39.2834V28.0664H40.9978V29.7845ZM40.9978 26.3468H39.2834V24.6282H40.9978V26.3468ZM40.9978 22.9084H39.2834V21.1899H40.9978V22.9084ZM44.4241 43.5366H42.7106V41.8174H44.4241V43.5366ZM44.4241 40.0991H42.7106V38.3799H44.4241V40.0991ZM44.4241 36.6605H42.7106V34.9419H44.4241V36.6605ZM44.4241 33.2229H42.7106V31.5042H44.4241V33.2229ZM44.4241 29.7845H42.7106V28.0664H44.4241V29.7845ZM44.4241 26.3468H42.7106V24.6282H44.4241V26.3468ZM44.4241 22.9084H42.7106V21.1899H44.4241V22.9084ZM47.85 43.5366H46.1368V41.8174H47.85V43.5366ZM47.85 40.0991H46.1368V38.3799H47.85V40.0991ZM47.85 36.6605H46.1368V34.9419H47.85V36.6605ZM47.85 33.2229H46.1368V31.5042H47.85V33.2229ZM47.85 29.7845H46.1368V28.0664H47.85V29.7845ZM47.85 26.3468H46.1368V24.6282H47.85V26.3468ZM47.85 22.9084H46.1368V21.1899H47.85V22.9084Z" fill="#CCCCCC"/>
</svg>
