<svg xmlns="http://www.w3.org/2000/svg" width="70" height="99" viewBox="0 0 70 99" fill="none">
  <path d="M44.2137 85.4065C43.901 85.7374 43.587 86.0697 43.2739 86.4033C43.2739 86.4043 43.2728 86.4047 43.2724 86.4052C41.2286 88.5785 38.8834 91.107 36.929 93.3682C36.4383 93.9333 35.7374 94.2516 34.9995 94.2516C34.6294 94.2516 34.2684 94.1708 33.939 94.0202C33.0705 93.622 33.4674 93.5615 25.7849 85.4065C14.3544 86.7662 9.3877 90.1796 9.3877 91.6881C9.3877 93.7262 18.1013 98.5002 34.9991 98.5002C51.8969 98.5002 60.6111 93.7263 60.6111 91.6881C60.6113 90.1794 55.6444 86.7657 44.2137 85.4065Z" fill="#CCCCCC"/>
  <path d="M35 87.823C48.6374 72.6389 70 53.9092 70 35.4381C70 16.1739 54.2991 0.5 35 0.5C15.7005 0.5 0 16.1739 0 35.4381C0 53.878 21.2687 72.5509 35 87.823ZM4.92017 35.4357C4.92017 18.8652 18.4141 5.38411 35.0006 5.38411C51.5851 5.38411 65.0783 18.8652 65.0783 35.4357C65.0783 52.0078 51.5851 65.4899 35.0006 65.4899C18.4141 65.4899 4.92017 52.008 4.92017 35.4357Z" fill="#CCCCCC"/>
  <path d="M25.6231 41.7365C27.6337 41.7365 29.27 40.0952 29.27 38.0771C29.27 36.0608 27.6337 34.4187 25.6231 34.4187C23.6125 34.4187 21.9766 36.0608 21.9766 38.0771C21.9766 40.0952 23.6125 41.7365 25.6231 41.7365Z" fill="#CCCCCC"/>
  <path d="M52.7123 30.7605C51.8504 30.7605 51.1493 31.4635 51.1493 32.3283V40.6472C49.8255 36.7272 46.1223 33.8963 41.7729 33.8963H30.8325V43.3041H51.1491V44.3498H30.3109H18.8511V19.7845C18.8511 18.9195 18.1494 18.2163 17.2877 18.2163C16.4265 18.2163 15.7246 18.9197 15.7246 19.7845V51.6669H18.8513V47.4852H51.1491V51.6669H54.275V32.3283C54.275 31.4635 53.5737 30.7605 52.7123 30.7605Z" fill="#CCCCCC"/>
</svg>