<svg xmlns="http://www.w3.org/2000/svg" width="197" height="198" viewBox="0 0 197 198" fill="none">
  <g clip-path="url(#clip0_35_2869)">
    <path d="M129.354 190.841L129.354 190.841C115.274 195.599 100.286 197.036 85.5604 195.041C70.8344 193.045 56.7675 187.671 44.4562 179.337C32.1448 171.003 21.9217 159.933 14.584 146.992C7.24625 134.05 2.99225 119.587 2.15374 104.728C1.31523 89.8692 3.9149 75.0175 9.74999 61.3304C15.585 47.6433 24.4978 35.491 35.7932 25.8206C46.5812 16.5846 59.2642 9.85086 72.934 6.08973L96.5607 99.7644L96.6955 100.299L97.0848 100.689L165.309 169.009C155.078 178.839 142.803 186.297 129.354 190.841Z" fill="#005341" stroke="white" stroke-width="4"/>
    <path d="M197 99.2754C197 112.229 194.452 125.056 189.502 137.022C184.552 148.99 177.297 159.864 168.15 169.023L98.4999 99.2754H197Z" fill="#FDD037"/>
    <path d="M73.0063 3.99775C87.7396 0.0444235 103.189 -0.428442 118.135 2.61642C133.082 5.66128 147.119 12.1407 159.139 21.5439C171.159 30.9473 180.834 43.0175 187.402 56.8036C193.969 70.5896 197.25 85.7147 196.985 100.987L98.4999 99.2754L73.0063 3.99775Z" fill="#FDD037"/>
  </g>
  <defs>
    <clipPath id="clip0_35_2869">
      <rect width="197" height="197.277" fill="white" transform="translate(0 0.636597)"/>
    </clipPath>
  </defs>
</svg>