<svg xmlns="http://www.w3.org/2000/svg" width="31" height="30" viewBox="0 0 31 30" fill="none">
  <path d="M15.5874 15.4839C14.7451 15.4839 14.0345 15.1926 13.4557 14.61C12.8768 14.0274 12.5874 13.3123 12.5874 12.4645C12.5874 11.6168 12.8768 10.9016 13.4557 10.319C14.0345 9.73645 14.7451 9.44516 15.5874 9.44516C16.4297 9.44516 17.1403 9.73645 17.7191 10.319C18.298 10.9016 18.5874 11.6168 18.5874 12.4645C18.5874 13.3123 18.298 14.0274 17.7191 14.61C17.1403 15.1926 16.4297 15.4839 15.5874 15.4839ZM15.5874 14.4774C16.1489 14.4774 16.6227 14.2832 17.0086 13.8948C17.3945 13.5064 17.5874 13.0297 17.5874 12.4645C17.5874 11.8994 17.3945 11.4226 17.0086 11.0342C16.6227 10.6458 16.1489 10.4516 15.5874 10.4516C15.0259 10.4516 14.5522 10.6458 14.1663 11.0342C13.7804 11.4226 13.5874 11.8994 13.5874 12.4645C13.5874 13.0297 13.7804 13.5064 14.1663 13.8948C14.5522 14.2832 15.0259 14.4774 15.5874 14.4774ZM15.5874 24C13.5784 23.4 11.9095 22.1752 10.5807 20.3255C9.25183 18.4758 8.5874 16.3923 8.5874 14.0748V8.63225L15.5874 6L22.5874 8.63225V14.0748C22.5874 16.3923 21.923 18.4758 20.5941 20.3255C19.2653 22.1752 17.5964 23.4 15.5874 24ZM15.5874 7.07418L9.5874 9.31935V14.0748C9.5874 15.0839 9.73484 16.0548 10.0297 16.9877C10.3246 17.9206 10.74 18.7839 11.2759 19.5774C11.9246 19.238 12.6034 18.9742 13.3124 18.7858C14.0214 18.5974 14.7797 18.5032 15.5874 18.5032C16.3951 18.5032 17.1534 18.5974 17.8624 18.7858C18.5714 18.9742 19.2502 19.238 19.899 19.5774C20.4348 18.7839 20.8502 17.9206 21.1451 16.9877C21.44 16.0548 21.5874 15.0839 21.5874 14.0748V9.31935L15.5874 7.07418ZM15.5874 19.5097C14.8977 19.5097 14.2406 19.5832 13.6163 19.7303C12.9919 19.8774 12.4086 20.0877 11.8663 20.3613C12.3752 20.9677 12.9419 21.491 13.5663 21.931C14.1906 22.371 14.8643 22.7045 15.5874 22.9316C16.3105 22.7045 16.981 22.371 17.5989 21.931C18.2169 21.491 18.7803 20.9677 19.2893 20.3613C18.747 20.0877 18.1669 19.8774 17.5489 19.7303C16.931 19.5832 16.2772 19.5097 15.5874 19.5097Z" fill="#404040"/>
</svg>