<svg xmlns="http://www.w3.org/2000/svg" width="20" height="21" viewBox="0 0 20 21" fill="none">
  <path d="M0.833496 15.9091C0.833496 14.0341 3.3335 14.0341 4.5835 12.7841C5.2085 12.1591 3.3335 12.1591 3.3335 9.03412C3.3335 6.95099 4.16662 5.90912 5.8335 5.90912C7.50037 5.90912 8.3335 6.95099 8.3335 9.03412C8.3335 12.1591 6.4585 12.1591 7.0835 12.7841C8.3335 14.0341 10.8335 14.0341 10.8335 15.9091" stroke="white" stroke-linecap="round"/>
  <path d="M9.99561 14.445C10.4681 14.1194 11.0815 13.8849 11.6684 13.6023C12.1273 13.3812 12.57 13.1307 12.9167 12.7841C13.5417 12.1591 11.6667 12.1591 11.6667 9.03412C11.6667 6.95099 12.4998 5.90912 14.1667 5.90912C15.8335 5.90912 16.6667 6.95099 16.6667 9.03412C16.6667 12.1591 14.7917 12.1591 15.4167 12.7841C16.6667 14.0341 19.1667 14.0341 19.1667 15.9091" stroke="white" stroke-linecap="round"/>
</svg>