<svg xmlns="http://www.w3.org/2000/svg" width="31" height="30" viewBox="0 0 31 30" fill="none">
  <path d="M1.8374 22.5C1.8374 19.6875 5.5874 19.6875 7.4624 17.8125C8.3999 16.875 5.5874 16.875 5.5874 12.1875C5.5874 9.06281 6.83709 7.5 9.3374 7.5C11.8377 7.5 13.0874 9.06281 13.0874 12.1875C13.0874 16.875 10.2749 16.875 11.2124 17.8125C13.0874 19.6875 16.8374 19.6875 16.8374 22.5" stroke="#404040" stroke-linecap="round"/>
  <path d="M15.5811 20.3039C16.2898 19.8154 17.2099 19.4637 18.0903 19.0397C18.7786 18.7082 19.4427 18.3324 19.9626 17.8125C20.9001 16.875 18.0876 16.875 18.0876 12.1875C18.0876 9.06281 19.3373 7.5 21.8376 7.5C24.338 7.5 25.5876 9.06281 25.5876 12.1875C25.5876 16.875 22.7751 16.875 23.7126 17.8125C25.5876 19.6875 29.3376 19.6875 29.3376 22.5" stroke="#404040" stroke-linecap="round"/>
</svg>